<svg width="18" height="19" viewBox="0 0 18 19" fill="none" xmlns="http://www.w3.org/2000/svg">
<g clip-path="url(#clip0_25_9)">
<path fill-rule="evenodd" clip-rule="evenodd" d="M7.5 17.5C7.5 18.0523 7.94772 18.5 8.5 18.5H9.5C10.0523 18.5 10.5 18.0523 10.5 17.5V11H17C17.5523 11 18 10.5523 18 10V9C18 8.44772 17.5523 8 17 8H10.5V1.5C10.5 0.947715 10.0523 0.5 9.5 0.5H8.5C7.94772 0.5 7.5 0.947716 7.5 1.5V8H1C0.447715 8 0 8.44772 0 9V10C0 10.5523 0.447716 11 1 11H7.5V17.5Z" fill="#111C38"/>
</g>
<defs>
<clipPath id="clip0_25_9">
<rect width="18" height="18" fill="white" transform="translate(0 0.5)"/>
</clipPath>
</defs>
</svg>
