<?xml version="1.0" standalone="no"?>
<!DOCTYPE svg PUBLIC "-//W3C//DTD SVG 20010904//EN"
 "http://www.w3.org/TR/2001/REC-SVG-20010904/DTD/svg10.dtd">
<svg version="1.0" xmlns="http://www.w3.org/2000/svg"
 width="100.000000pt" height="100.000000pt" viewBox="0 0 100.000000 100.000000"
 preserveAspectRatio="xMidYMid meet">

<g transform="translate(0.000000,100.000000) scale(0.100000,-0.100000)"
fill="#000000" stroke="none">
<path d="M718 808 c-11 -9 -416 -495 -455 -547 -2 -3 -50 41 -107 97 -57 56
-108 102 -114 102 -14 0 -42 -28 -42 -42 0 -13 216 -235 243 -249 9 -6 23 -6
31 -2 8 4 92 102 188 218 269 325 318 386 318 395 0 10 -29 40 -39 40 -4 0
-14 -6 -23 -12z"/>
<path d="M938 808 c-11 -10 -436 -520 -454 -546 -1 -2 -11 1 -22 7 -24 13 -48
6 -56 -16 -13 -33 58 -103 87 -86 8 4 93 102 189 218 269 325 318 386 318 395
0 10 -29 40 -39 40 -4 0 -14 -6 -23 -12z"/>
</g>
</svg>
