<svg width="50" height="48" viewBox="0 0 50 48" fill="none" xmlns="http://www.w3.org/2000/svg">
<g clip-path="url(#clip0_40_373)">
<path d="M9.75971 9.49353V14.573L0 0H46.5804C47.183 0.0702861 47.7618 0.276218 48.2734 0.602323C48.7849 0.928428 49.2159 1.36623 49.534 1.88282C49.8521 2.39942 50.0489 2.98138 50.1098 3.58499C50.1707 4.18859 50.0939 4.79814 49.8854 5.36784C48.7985 10.3142 41.2569 19.963 36.1553 23.2458C35.0346 22.8531 33.9384 22.3938 32.8725 21.8706C32.8725 21.8706 38.5065 17.4344 38.2181 13.3309C37.9298 9.22736 34.2477 8.89464 29.8336 9.49353V36.1109H35.8891L25.3087 47.9556L14.9945 36.7098L20.3401 36.5767L19.8078 9.49353H9.75971Z" fill="#EF0A21"/>
</g>
<defs>
<clipPath id="clip0_40_373">
<rect width="49.9298" height="48" fill="white"/>
</clipPath>
</defs>
</svg>
